<svg xmlns="http://www.w3.org/2000/svg" width="588.853" height="544.43" viewBox="0 0 588.853 544.43">
  <title>Designing_user_interfaces_steffen_muldbjerg</title>
  <path d="M301.394,301.78s2.369-3,2.649-14.1c.247-9.764-31.264-75.744,18.316-75.744,48.42,0,19.55,66.642,19.55,76.709,0,13.994,4.14,13.631,4.14,13.631" fill="none" stroke="#000" stroke-linecap="round" stroke-miterlimit="10" stroke-width="5"/>
  <path d="M268.2,479.9c-5.066-7.413-7.9-15.763-10.792-24.04-2.865-8.3-5.128-16.777-7.178-25.3a278.068,278.068,0,0,1-6.937-52.088c-.072-2.193-.174-4.385-.222-6.578l.093-6.583.095-6.582c.1-2.192.283-4.38.42-6.57.352-4.381.4-8.711,1.308-13.307a45.6,45.6,0,0,1,12.861-24.011,58.961,58.961,0,0,1,10.774-8.345,74.085,74.085,0,0,1,12.155-5.857q3.153-1.179,6.391-2.1A63.689,63.689,0,0,1,293.825,297l.669-.113.677.277h0a63.26,63.26,0,0,0,6.811,2.185c2.341.62,4.714,1.14,7.1,1.558a78.6,78.6,0,0,0,14.467,1.16,122.146,122.146,0,0,0,14.642-1.088,137.752,137.752,0,0,0,14.438-2.649l.066-.016a2.5,2.5,0,1,1,1.184,4.857h0a142.244,142.244,0,0,1-15.036,2.766,127.226,127.226,0,0,1-15.238,1.13,83.634,83.634,0,0,1-15.376-1.233q-3.8-.664-7.534-1.653a67.4,67.4,0,0,1-7.452-2.4h0l1.346.163a59.725,59.725,0,0,0-6.024,1.455c-2.016.589-4.008,1.268-5.968,2.021a68.768,68.768,0,0,0-11.246,5.536,53.564,53.564,0,0,0-9.723,7.658,42.223,42.223,0,0,0-7.256,9.807,40.476,40.476,0,0,0-4.054,11.473c-.8,3.938-.879,8.339-1.214,12.611-.133,2.145-.316,4.288-.41,6.435l-.09,6.449-.091,6.449c.048,2.149.15,4.3.221,6.446a277.786,277.786,0,0,0,6.491,51.135c1.956,8.378,4.119,16.724,6.874,24.876,1.33,4.09,2.825,8.124,4.331,12.145,1.474,4.026,2.948,8.095,4.279,12.155l.02.062A1.423,1.423,0,0,1,268.2,479.9Z"/>
  <path d="M367.781,301.682s27-3.248,32.907-6.021c1.885-.885,12.173-12.746,17.257-39.463a2.411,2.411,0,0,1,2.361-1.971h22.628a2.393,2.393,0,0,1,2.4,2.254c.453,8.465-3.334,40.939-8.039,55.7-3.511,11.01-23.069,23.037-42.631,29.566,1.133,47.439-15.722,149.116-15.722,149.116" fill="none" stroke="#000" stroke-linecap="round" stroke-miterlimit="10" stroke-width="5"/>
  <g>
    <path d="M294.966,312.811a83.626,83.626,0,0,0,19.829,5.8,76.684,76.684,0,0,0,25.635-.659" fill="#fff"/>
    <path d="M295.912,310.787A77.778,77.778,0,0,0,306.57,314.3a79.424,79.424,0,0,0,11.041,2.04,70.406,70.406,0,0,0,11.159.167c1.867-.117,3.73-.3,5.583-.547,1.829-.245,3.745-.561,5.428-.938l.075-.017a3,3,0,1,1,1.314,5.856l-.092.019c-2.11.4-4.032.649-6.048.86-1.995.2-3.994.338-6,.4a75.7,75.7,0,0,1-12.044-.557c-2.015-.293-3.989-.635-5.929-1.085q-2.924-.643-5.786-1.494a81.867,81.867,0,0,1-11.255-4.169,2.233,2.233,0,0,1,1.8-4.087Z"/>
  </g>
  <path d="M332.156,273.916c7.809-3.94,16.631-15.941,17.113-15.318,2.334-12.642,3.1-47.551-8-43.2,6.565-4.7-8.194-15.146-18.819-4.085,4.195-6.417-23.3-7.115-24.315,10.647-3.907,5.383-5.471,24.214-3.816,32.817,2.243,3.682,11.7,16.945,20.6,19.626C317.064,275.045,328.51,275.755,332.156,273.916Z" stroke="#000" stroke-linecap="round" stroke-linejoin="round" stroke-width="5"/>
  <circle cx="304.074" cy="208.506" r="4.803" stroke="#000" stroke-linecap="round" stroke-linejoin="round" stroke-width="3"/>
  <circle cx="323.858" cy="202.466" r="6.625" stroke="#000" stroke-linecap="round" stroke-linejoin="round" stroke-width="3"/>
  <circle cx="335.192" cy="206.889" r="4.513" stroke="#000" stroke-linecap="round" stroke-linejoin="round" stroke-width="3"/>
  <circle cx="342.846" cy="212.403" r="5.678" stroke="#000" stroke-linecap="round" stroke-linejoin="round" stroke-width="3"/>
  <circle cx="350.994" cy="218.485" r="3.713" stroke="#000" stroke-linecap="round" stroke-linejoin="round" stroke-width="3"/>
  <circle cx="311.198" cy="199.669" r="5.65" stroke="#000" stroke-linecap="round" stroke-linejoin="round" stroke-width="3"/>
  <path d="M338.539,206.678a4.26,4.26,0,0,1,.772-1.472,8.952,8.952,0,0,1,.827-.952c.282-.3.607-.556.911-.828.341-.238.654-.5,1.018-.706a6.617,6.617,0,0,1,4.931-.937,7.513,7.513,0,0,1,3.958,2.673c.483.59.869,1.236,1.285,1.853l1.006,1.964a.489.489,0,0,1-.841.5l-.028-.042-1.165-1.737c-.45-.517-.869-1.066-1.35-1.528a5.783,5.783,0,0,0-3.22-1.72,4.384,4.384,0,0,0-3.174,1.043c-.241.174-.452.408-.68.6-.2.236-.421.448-.6.695a6.035,6.035,0,0,0-.5.733,2.936,2.936,0,0,0-.207.426,1.5,1.5,0,1,1-2.947-.562Z"/>
  <path d="M305.692,224a15.308,15.308,0,0,0-.075,3.572,4.346,4.346,0,0,0,1.314,2.706,2.365,2.365,0,0,0,2.523.508,16.005,16.005,0,0,0,1.655-.64,8.841,8.841,0,0,0,1.5-.788,3.82,3.82,0,0,0,.569-.471,2.271,2.271,0,0,1,1.64-.683,2.39,2.39,0,0,1,1.581.615,2.313,2.313,0,0,1,.759,1.563c.032.788-.055,1.415-.044,1.959a1.762,1.762,0,0,0,.283,1.144,1.824,1.824,0,0,0,1.076.51,3.462,3.462,0,0,0,1.414-.214c.586-.161,1.195-.334,1.831-.473a6.813,6.813,0,0,1,2.1-.183.629.629,0,0,1,.185,1.207l-.129.053c-.447.184-1.044.467-1.616.692s-1.187.452-1.828.635c-.318.094-.655.18-1.011.254a5.09,5.09,0,0,1-.607.081,2.2,2.2,0,0,1-.4,0,2.052,2.052,0,0,1-.323-.051,3.805,3.805,0,0,1-2.269-1.173,3.765,3.765,0,0,1-.8-2.436c-.016-.731.052-1.376.018-1.863a.168.168,0,0,0-.064-.107.25.25,0,0,0-.164-.058c-.049,0-.04.014-.073.036a5.718,5.718,0,0,1-.89.758,10.765,10.765,0,0,1-1.877.992,17.748,17.748,0,0,1-1.913.729,4.951,4.951,0,0,1-2.407.15,4.634,4.634,0,0,1-2.178-1.148,6.355,6.355,0,0,1-1.927-4.039,17.109,17.109,0,0,1,.158-4.053,1,1,0,0,1,1.988.219Z" fill="#fff"/>
  <path d="M339.425,229.822a3.068,3.068,0,0,1-.515,1.109,5.992,5.992,0,0,1-.743.955,1,1,0,0,1-1.589-1.181l.063-.111a4.99,4.99,0,0,1,.641-.886,2.763,2.763,0,0,1,.87-.732l.093-.049a.818.818,0,0,1,1.18.9Z" fill="#fff"/>
  <rect x="49.67" y="169.755" width="141.848" height="94.504" fill="none" stroke="#000" stroke-linecap="round" stroke-miterlimit="10" stroke-width="5"/>
  <polyline points="344.441 173.845 344.441 130.894 400.138 130.894 400.138 164.66" fill="none" stroke="#000" stroke-linecap="round" stroke-miterlimit="10" stroke-width="5"/>
  <path d="M420.314,254.227c-.132-2.939-.129-28.818-3.015-34.761-2.753-5.672-12.853-15.435-12.29-22.02.593-6.928-2.712-11.325-.353-12.474,1.536-.749,3.34.989,4.038,3.25s1.475,7.28,3.524,5.3,1.754-7.614.211-10.392-2.587-5.492.232-6.4c2.245-.726,5.3,5.973,6.375,8.6" fill="none" stroke="#000" stroke-linecap="round" stroke-miterlimit="10" stroke-width="4"/>
  <path d="M416.088,179.517c-1.407-1.893,1.03-6.152,3.725-3.29,1.943,2.064,3.782,7.431,3.782,7.431" fill="none" stroke="#000" stroke-linecap="round" stroke-miterlimit="10" stroke-width="4"/>
  <path d="M421.135,178.1c-1.415-2.314,1.883-6.832,4.822-2.209,3.359,5.285,4.992,10.648,5.118,18.761s-1.189,16.229.966,21.426,8.473,22.334,10.419,38.146" fill="none" stroke="#000" stroke-linecap="round" stroke-miterlimit="10" stroke-width="4"/>
  <path d="M413.944,185.83,402.65,173.475c-1.646-1.8-4.87,1.159-3.223,2.955l10.808,12.325" fill="#fff" stroke="#000" stroke-linecap="round" stroke-miterlimit="10" stroke-width="2"/>
  <circle cx="411.972" cy="187.255" r="2.435" fill="#fff" stroke="#000" stroke-linecap="round" stroke-miterlimit="10" stroke-width="2"/>
  <path d="M407.5,185.386a3.235,3.235,0,0,1,3.151-3" fill="#fff" stroke="#000" stroke-linecap="round" stroke-miterlimit="10" stroke-width="2"/>
  <line x1="399.467" y1="173.145" x2="399.219" y2="172.845" fill="none" stroke="#000" stroke-linecap="round" stroke-miterlimit="10" stroke-width="3"/>
  <polygon points="152.934 47.905 195.566 104.778 110.302 104.778 152.934 47.905" fill="none" stroke="#000" stroke-linecap="round" stroke-miterlimit="10" stroke-width="5"/>
  <path d="M156.353,185.069q3.52-.162,7.044.021c1.173.062,2.345.15,3.513.271.294.033.566.05.935.113a2.787,2.787,0,0,1,1.236.5,2.165,2.165,0,0,1,.806,1.353,2.98,2.98,0,0,1-.086,1.292,5.087,5.087,0,0,1-1.036,1.912,7.476,7.476,0,0,1-1.566,1.274,30.667,30.667,0,0,1-3.211,1.617c-2.045.932-4.065,2.041-4.408,3.8a2.433,2.433,0,0,0-.08.5c.019.046-.037-.012.032.038a2.854,2.854,0,0,0,1.147.259c1.047.085,2.209,0,3.455.07a7.715,7.715,0,0,1,1.946.355,4.215,4.215,0,0,1,1.033.47,2.685,2.685,0,0,1,.921,1,3.14,3.14,0,0,1,.144,2.485,3.037,3.037,0,0,1-.672,1.1c-.077.083-.168.157-.254.233l-.118.116c-.077.078-.158.143-.234.226a8.116,8.116,0,0,0-1.4,2.693,18.039,18.039,0,0,0-.709,3.171,18.888,18.888,0,0,0,.256,6.53l0,.025a.663.663,0,0,1-1.253.41,14.377,14.377,0,0,1-1.021-7.195,15.87,15.87,0,0,1,.774-3.6,9.984,9.984,0,0,1,1.866-3.384c.121-.129.261-.251.393-.374l.264-.242a1.047,1.047,0,0,0,.221-.372,1.168,1.168,0,0,0-.027-.888c-.058-.343-1.311-.734-2.254-.763-1.067-.069-2.226.023-3.49-.072a4.338,4.338,0,0,1-2.165-.635,2.2,2.2,0,0,1-.568-.593,2.311,2.311,0,0,1-.271-.8,3.531,3.531,0,0,1,.114-1.214,5.845,5.845,0,0,1,2.306-3.36,17.608,17.608,0,0,1,3.206-1.805c2.072-.984,4.342-1.843,4.728-3.518a1.017,1.017,0,0,0,.045-.425.146.146,0,0,0-.054-.107,3.105,3.105,0,0,0-1.156-.213c-1.135-.118-2.274-.2-3.413-.264-2.28-.12-4.566-.125-6.846-.02a1,1,0,1,1-.094-2Z"/>
  <circle cx="280.984" cy="78.566" r="34.836" fill="none" stroke="#000" stroke-linecap="round" stroke-miterlimit="10" stroke-width="5"/>
  <path d="M288.634,79.562a27.184,27.184,0,0,1,7.445-2.731c2.537-.567,5.026-.913,7.538-1.272a130.686,130.686,0,0,1,45.361,1.806,79.543,79.543,0,0,1,14.658,4.424,43.1,43.1,0,0,1,6.876,3.662,17.815,17.815,0,0,1,5.882,5.685,11.6,11.6,0,0,1,1.4,4.082,25.345,25.345,0,0,1,.242,3.991c-.015,2.523-.036,5.019-.1,7.546s-.18,5.056-.409,7.592a19.443,19.443,0,0,1-1.814,7.445.733.733,0,0,1-1.382-.254v-.015a38.64,38.64,0,0,1,.2-7.43c.2-2.452.288-4.924.335-7.405s.042-4.987.036-7.47c0-2.446-.2-4.714-1.269-6.468a14.778,14.778,0,0,0-4.9-4.566,39.877,39.877,0,0,0-6.389-3.331A81.788,81.788,0,0,0,348.258,80.7a130.994,130.994,0,0,0-29.439-2.932,134.193,134.193,0,0,0-14.789.987c-4.9.663-9.873,1.241-13.932,3.43l-.012.006a1.5,1.5,0,0,1-1.452-2.625Z"/>
  <path d="M290.328,72.662l-2.692,8.678a.742.742,0,0,0,.587.951,48.047,48.047,0,0,1,7.453,3.759" fill="none" stroke="#000" stroke-linecap="round" stroke-miterlimit="10" stroke-width="3"/>
  <rect x="452.46" y="358.767" width="27.552" height="27.552"/>
  <rect x="86.526" y="250.483" width="27.552" height="27.552"/>
  <rect x="253.432" y="139.594" width="27.552" height="27.552"/>
  <path d="M128.369,90.316l.27,8.619" fill="none" stroke="#000" stroke-linecap="round" stroke-miterlimit="10" stroke-width="2"/>
  <path d="M136.3,82.1a49.05,49.05,0,0,0,.18,4.921c.173,1.741.135,3.493.184,5.242a26.078,26.078,0,0,1-.719,6.84" fill="none" stroke="#000" stroke-linecap="round" stroke-miterlimit="10" stroke-width="2"/>
  <path d="M144.732,69.737q-.426,14.2-.352,28.415" fill="none" stroke="#000" stroke-linecap="round" stroke-miterlimit="10" stroke-width="2"/>
  <path d="M153.588,58.787c.918,5.282-.85,10.656-.774,16.017a67.768,67.768,0,0,0,1,8.477,74.762,74.762,0,0,1,.575,15.262" fill="none" stroke="#000" stroke-linecap="round" stroke-miterlimit="10" stroke-width="2"/>
  <path d="M162.32,71.309c-.179,9.667-.067,18.34.337,28" fill="none" stroke="#000" stroke-linecap="round" stroke-miterlimit="10" stroke-width="2"/>
  <path d="M170.651,82.282c.089,3.956.179,6.912.269,10.867a8.256,8.256,0,0,1-.123,2.043c-.271,1.182-.31,1.715-.623,3.507" fill="none" stroke="#000" stroke-linecap="round" stroke-miterlimit="10" stroke-width="2"/>
  <path d="M178.378,92.082a4.336,4.336,0,0,0-.523,3.5,23.751,23.751,0,0,1,.321,3.309" fill="none" stroke="#000" stroke-linecap="round" stroke-miterlimit="10" stroke-width="2"/>
  <path d="M456.449,364.264a52.791,52.791,0,0,1,11.678.514l6.929.821" fill="none" stroke="#fff" stroke-linecap="round" stroke-miterlimit="10"/>
  <rect x="481.632" y="106.626" width="27.552" height="27.552"/>
  <path d="M504.245,112.658a52.784,52.784,0,0,0-11.688-.157l-6.964.422" fill="none" stroke="#fff" stroke-linecap="round" stroke-miterlimit="10"/>
  <path d="M257.541,144.478c3.717-.224,7.526-.438,11.093.632a18.111,18.111,0,0,0,2.673.737,3.471,3.471,0,0,0,2.64-.57" fill="none" stroke="#fff" stroke-linecap="round" stroke-miterlimit="10"/>
  <path d="M90.662,255.229a150.315,150.315,0,0,1,16.227.758" fill="none" stroke="#fff" stroke-linecap="round" stroke-miterlimit="10"/>
  <path d="M428.39,304.059a5.715,5.715,0,0,1,.319,2.774,8.02,8.02,0,0,1-.855,2.655,10.809,10.809,0,0,1-3.624,3.95,1.5,1.5,0,1,1-1.673-2.49c.015-.01.035-.024.051-.033a9.481,9.481,0,0,0,2.932-2.755,6.2,6.2,0,0,0,1.019-3.684v-.044a.95.95,0,0,1,1.832-.373Z"/>
  <path d="M357.636,379.848a45.293,45.293,0,0,1,10.017.543l1.237.223.308.061.16.033.23.062a4.187,4.187,0,0,1,.9.35,4.24,4.24,0,0,1,2.161,3.061,4.3,4.3,0,0,1-1.037,3.589,3.012,3.012,0,0,1-.342.336c-.114.1-.258.228-.319.271l-.48.373-.961.741L361.8,395.4l-3.854,2.954-.963.739-.482.369c-.139.113-.265.206-.389.319a6.82,6.82,0,0,0-1.28,1.477,5.936,5.936,0,0,0-.76,1.732,5.151,5.151,0,0,0-.133,1.779,2.825,2.825,0,0,0,.6,1.427,7.931,7.931,0,0,0,1.471,1.345c.605.459,1.32.942,2.012,1.558a13.285,13.285,0,0,1,1.872,2,16.323,16.323,0,0,1,2.471,4.751,22.909,22.909,0,0,1,.765,10.288,44.546,44.546,0,0,1-.953,4.93,15.049,15.049,0,0,1-1.8,4.6.99.99,0,0,1-1.365.306,1,1,0,0,1-.46-.82,19.017,19.017,0,0,1,.7-4.786,41.684,41.684,0,0,0,.85-4.606,19.835,19.835,0,0,0-.714-8.909,13.2,13.2,0,0,0-2.017-3.81,13.723,13.723,0,0,0-3.291-2.917,10.965,10.965,0,0,1-2.1-1.925,6.132,6.132,0,0,1-1.279-2.984,8.57,8.57,0,0,1,1.367-5.731,10.125,10.125,0,0,1,1.891-2.178c.175-.159.374-.309.55-.45l.482-.368.964-.738,3.858-2.948,7.715-5.9.967-.734.484-.366a1.148,1.148,0,0,0,.144-.12c.029-.03.075-.049.093-.085a1.074,1.074,0,0,0,.274-.912.985.985,0,0,0-.739-.876l-.061-.023-.137-.03-.287-.06-1.148-.224a42.269,42.269,0,0,0-9.33-.632,1.5,1.5,0,0,1-.153-3Z"/>
  <path d="M372.289,301.105s21.918-8.479,24.487-12.146a107.9,107.9,0,0,0,15.757-35.535,5.058,5.058,0,0,1,.978-1.726,1.947,1.947,0,0,0,.384-.8c1.9-8.484,3-16.217,3-30.225l3.384,32.36L413.088,274.3s-6.889,17.63-12.4,21.361S372.289,301.105,372.289,301.105Z"/>
</svg>
