<?xml version="1.0" standalone="no"?>
<!DOCTYPE svg PUBLIC "-//W3C//DTD SVG 20010904//EN"
 "http://www.w3.org/TR/2001/REC-SVG-20010904/DTD/svg10.dtd">
<svg version="1.0" xmlns="http://www.w3.org/2000/svg"
 width="1200.000000pt" height="1200.000000pt" viewBox="0 0 1200.000000 1200.000000"
 preserveAspectRatio="xMidYMid meet">
<metadata>
Created by potrace 1.14, written by Peter Selinger 2001-2017
</metadata>
<g transform="translate(0.000000,1200.000000) scale(0.100000,-0.100000)"
fill="#000000" stroke="none">
<path d="M4551 8469 c-421 -44 -838 -256 -1089 -552 -80 -95 -169 -228 -211
-316 l-29 -62 -6 48 c-3 26 -17 199 -31 383 -14 184 -28 350 -31 368 l-5 32
-319 0 -320 0 0 -2375 0 -2375 380 0 380 0 0 1328 c0 843 4 1360 10 1417 37
317 153 630 314 845 83 111 215 237 318 304 221 143 414 200 683 200 203 1
321 -26 485 -110 309 -158 520 -473 597 -889 15 -81 17 -240 20 -1592 l4
-1503 379 0 380 0 0 1340 c0 1465 -1 1435 59 1674 198 781 862 1227 1557 1045
344 -90 618 -375 724 -754 55 -197 53 -118 57 -1772 l4 -1533 375 0 375 0 -4
1588 c-4 1739 -1 1662 -64 1927 -136 578 -481 1017 -953 1217 -318 135 -656
162 -1048 83 -375 -76 -742 -278 -965 -530 -110 -124 -234 -331 -269 -448
l-12 -38 -52 106 c-330 668 -962 1020 -1693 944z"/>
</g>
</svg>
