<?xml version="1.0" standalone="no"?>
<!DOCTYPE svg PUBLIC "-//W3C//DTD SVG 20010904//EN"
 "http://www.w3.org/TR/2001/REC-SVG-20010904/DTD/svg10.dtd">
<svg version="1.0" xmlns="http://www.w3.org/2000/svg"
 width="1920.000000pt" height="1920.000000pt" viewBox="0 0 1920.000000 1920.000000"
 preserveAspectRatio="xMidYMid meet">
<metadata>
Created by potrace 1.11, written by Peter Selinger 2001-2013
</metadata>
<g transform="translate(0.000000,1920.000000) scale(0.100000,-0.100000)"
fill="#000000" stroke="none">
<path d="M5525 9608 l0 -3983 777 -3 778 -2 2 2332 3 2332 126 -165 c69 -90
154 -202 190 -247 35 -46 75 -99 89 -117 26 -35 178 -233 306 -400 93 -121
210 -273 318 -415 45 -58 86 -112 93 -120 10 -12 232 -303 316 -414 12 -16 56
-72 97 -125 40 -53 116 -151 166 -218 51 -68 98 -128 104 -135 9 -11 150 -195
437 -571 38 -49 75 -97 83 -108 8 -10 53 -68 100 -129 80 -106 85 -110 100
-92 40 51 239 309 526 684 357 465 457 594 479 623 26 33 219 284 849 1105
231 299 424 550 430 557 6 7 58 75 116 152 58 77 107 140 110 141 3 0 5 -1050
5 -2332 l0 -2333 778 -3 777 -2 0 3985 0 3985 -428 0 -427 0 -75 -96 c-115
-147 -278 -354 -318 -405 -21 -25 -48 -61 -62 -79 -14 -18 -89 -114 -168 -214
-78 -100 -202 -257 -275 -349 -221 -282 -299 -381 -368 -469 -36 -45 -173
-220 -304 -388 -132 -168 -244 -310 -250 -317 -14 -17 -23 -29 -80 -103 -64
-82 -78 -100 -90 -114 -6 -6 -46 -56 -88 -111 -43 -55 -84 -107 -90 -115 -7
-8 -28 -35 -47 -60 -19 -25 -39 -50 -45 -57 -16 -19 -27 -34 -80 -103 -28 -36
-52 -67 -55 -70 -3 -3 -21 -25 -40 -50 -19 -25 -37 -47 -40 -50 -3 -3 -19 -23
-36 -45 -16 -22 -74 -96 -129 -166 -55 -69 -136 -172 -180 -229 -44 -56 -87
-110 -95 -120 -8 -10 -22 -28 -30 -40 -8 -12 -20 -28 -25 -34 -6 -6 -62 -76
-124 -156 -63 -80 -119 -151 -125 -158 -9 -9 -40 24 -141 154 -120 153 -249
317 -278 354 -7 8 -91 116 -187 240 -96 124 -182 234 -192 245 -17 21 -98 125
-135 172 -11 15 -107 138 -213 273 -226 288 -196 250 -406 520 -92 118 -191
244 -219 280 -29 36 -133 169 -231 295 -99 127 -294 376 -434 555 -319 408
-505 646 -535 685 -82 105 -200 256 -226 288 l-31 37 -426 0 -427 0 0 -3982z"/>
</g>
</svg>
