<?xml version="1.0" standalone="no"?>
<!DOCTYPE svg PUBLIC "-//W3C//DTD SVG 20010904//EN"
 "http://www.w3.org/TR/2001/REC-SVG-20010904/DTD/svg10.dtd">
<svg version="1.0" xmlns="http://www.w3.org/2000/svg"
 width="1920.000000pt" height="1920.000000pt" viewBox="0 0 1920.000000 1920.000000"
 preserveAspectRatio="xMidYMid meet">
<metadata>
Created by potrace 1.11, written by Peter Selinger 2001-2013
</metadata>
<g transform="translate(0.000000,1920.000000) scale(0.100000,-0.100000)"
fill="#000000" stroke="none">
<path d="M1435 9608 l0 -7983 1555 0 1555 0 0 4677 c0 2572 3 4674 6 4672 3
-2 59 -72 123 -156 64 -84 164 -216 223 -294 60 -77 142 -185 183 -240 41 -54
78 -101 81 -104 3 -3 57 -72 120 -155 62 -82 119 -157 126 -165 16 -20 429
-559 562 -734 59 -78 114 -150 123 -161 10 -11 72 -92 139 -180 154 -202 207
-272 574 -750 164 -214 342 -446 394 -515 52 -69 98 -127 101 -130 3 -3 39
-50 80 -105 41 -55 77 -102 80 -105 3 -3 32 -41 65 -85 33 -43 66 -86 72 -95
7 -8 78 -100 158 -205 80 -104 156 -203 168 -218 12 -16 54 -70 92 -121 39
-51 207 -271 375 -490 168 -219 347 -452 398 -519 51 -67 103 -135 116 -152
13 -16 94 -122 181 -235 86 -113 168 -220 183 -239 15 -19 43 -55 62 -81 105
-142 253 -330 258 -330 4 1 43 49 87 107 44 58 85 111 90 117 6 6 37 47 71 91
129 171 229 301 239 311 5 7 19 24 30 40 11 15 36 48 56 73 19 25 87 114 150
196 63 83 227 296 365 474 137 178 272 354 299 390 28 36 80 104 115 150 36
46 99 128 140 182 41 53 102 132 135 175 33 43 198 258 368 478 169 221 313
408 320 416 7 8 23 31 37 50 13 19 27 37 30 40 4 3 87 111 186 240 98 129 184
242 191 250 12 15 446 580 487 633 11 16 39 52 62 80 31 40 197 256 246 322 4
6 18 24 31 40 14 17 111 143 216 280 105 138 202 264 215 280 27 34 146 191
210 275 22 30 43 57 46 60 3 3 35 43 70 90 36 46 71 91 77 100 7 8 63 80 123
160 61 80 120 156 131 170 11 14 68 89 127 167 59 78 110 142 115 143 4 0 7
-2108 7 -4685 l0 -4685 1555 0 1555 0 0 7985 0 7985 -853 0 -854 0 -189 -241
c-104 -132 -196 -249 -204 -259 -8 -10 -51 -64 -95 -121 -108 -138 -243 -309
-263 -334 -9 -12 -39 -50 -67 -85 -27 -36 -55 -72 -62 -80 -7 -8 -35 -44 -63
-80 -28 -36 -56 -72 -63 -80 -7 -8 -95 -121 -196 -250 -255 -324 -410 -521
-430 -545 -9 -11 -39 -49 -66 -85 -27 -36 -55 -72 -62 -80 -17 -20 -214 -272
-267 -341 -24 -30 -50 -64 -59 -75 -9 -10 -62 -77 -118 -149 -55 -71 -108
-139 -117 -150 -10 -11 -33 -40 -52 -65 -19 -25 -37 -47 -40 -50 -3 -3 -28
-34 -55 -70 -28 -36 -55 -72 -62 -80 -17 -20 -474 -601 -523 -665 -21 -27 -69
-89 -107 -136 -37 -48 -106 -135 -153 -195 -47 -60 -92 -118 -101 -129 -10
-11 -59 -74 -110 -140 -51 -66 -95 -122 -98 -125 -3 -3 -28 -34 -56 -70 -27
-36 -55 -72 -62 -80 -7 -8 -108 -136 -224 -285 -320 -407 -374 -476 -515 -655
-71 -91 -134 -172 -141 -180 -35 -44 -151 -192 -173 -220 -14 -18 -70 -90
-125 -160 -55 -70 -111 -141 -125 -159 -14 -18 -30 -38 -35 -44 -6 -7 -70 -88
-143 -182 -73 -93 -138 -177 -145 -185 -6 -8 -37 -47 -67 -85 -30 -38 -60 -77
-67 -85 -32 -40 -110 -140 -131 -167 -12 -16 -33 -43 -46 -59 -13 -16 -128
-162 -255 -324 -127 -162 -237 -302 -244 -310 -7 -8 -26 -33 -42 -55 -16 -22
-32 -42 -35 -45 -3 -3 -21 -25 -40 -50 -19 -25 -37 -47 -40 -50 -3 -3 -36 -45
-74 -93 -38 -49 -72 -85 -75 -80 -9 10 -245 313 -315 403 -27 36 -56 72 -63
80 -8 8 -82 103 -166 211 -84 107 -164 211 -179 230 -15 19 -57 72 -93 119
-36 47 -71 92 -78 100 -13 16 -173 221 -477 610 -101 129 -193 247 -204 261
-12 14 -30 38 -41 53 -11 16 -25 33 -30 40 -6 6 -132 166 -280 356 -148 190
-275 352 -282 360 -7 8 -65 83 -129 165 -63 83 -126 163 -140 179 -13 16 -34
43 -46 59 -23 30 -230 294 -280 358 -37 47 -193 246 -226 289 -15 19 -101 130
-192 246 -91 116 -186 237 -211 270 -25 32 -88 113 -140 179 -52 66 -103 132
-114 146 -38 51 -229 294 -234 299 -4 3 -26 32 -51 65 -25 33 -52 69 -62 80
-9 11 -46 58 -82 105 -37 47 -72 92 -79 100 -25 31 -183 233 -202 259 -17 24
-105 135 -142 181 -16 19 -175 223 -211 270 -15 19 -62 80 -105 135 -43 55
-84 107 -90 115 -7 9 -28 36 -48 60 -19 25 -60 77 -89 115 -30 39 -160 205
-289 370 -130 165 -277 354 -329 420 -51 66 -105 135 -120 154 -15 19 -54 69
-87 111 -130 168 -340 436 -350 446 -5 6 -48 62 -95 123 l-85 111 -855 0 -855
0 0 -7982z"/>
</g>
</svg>
