<svg width="200" height="200" viewBox="0 0 200 200" fill="none" xmlns="http://www.w3.org/2000/svg">
  <rect width="200" height="200" rx="100" fill="#213B13"/>
  <path d="M133.321 58C119.562 58 107.626 65.5469 104.144 76.375C99.5027 65.3828 89.7219 58 77.2888 58C64.8556 58 54.5775 64.7266 50.4332 74.4062L49.2727 59.9688H38V142H51.262V98.0313C51.5936 82.2812 61.0428 71.125 74.6364 71.125C85.9091 71.125 93.7005 80.6406 93.7005 92.7813V142H106.963V98.0313C107.294 82.2812 117.075 71.125 130.005 71.125C141.278 71.125 148.904 79.6562 148.904 92.125V142H162V90.8125C162 71.7812 150.23 58 133.321 58Z" fill="#E7F1E1"/>
  <style>
      @media (prefers-color-scheme:dark){:root{filter:invert(100%)}}
  </style>
</svg>

