<svg viewBox="0 0 169 170" fill="none" xmlns="http://www.w3.org/2000/svg">
<g clip-path="url(#clip0_283:363)">
<path d="M32.8809 119.394L40.3974 114.389L41.0386 115.349L33.5222 120.354L32.8809 119.394Z" fill="white"/>
<path d="M33.9682 117.233L33.7464 116.849C33.688 116.761 33.6122 116.686 33.5237 116.627C33.4351 116.569 33.3356 116.53 33.2311 116.511C33.1267 116.493 33.0194 116.495 32.9158 116.519C32.8122 116.543 32.7145 116.587 32.6285 116.65L31.8337 117.109L31.293 116.207L32.8218 115.294L32.0389 113.99L32.9678 113.434L33.7494 114.735L37.2075 112.666C37.3075 112.603 37.3935 112.52 37.4605 112.423C37.5275 112.326 37.574 112.216 37.5971 112.101C37.6202 111.985 37.6195 111.867 37.595 111.752C37.5705 111.637 37.5228 111.528 37.4547 111.432C37.3554 111.264 37.2313 111.111 37.0864 110.98L38.0261 110.384C38.2184 110.562 38.3838 110.766 38.5173 110.992C39.0951 111.952 38.8755 112.967 37.968 113.514L34.3182 115.698L34.9032 116.67L33.9682 117.233Z" fill="white"/>
<path d="M32.2255 112.568L31.6673 112.817C31.6502 112.745 31.6253 112.674 31.5929 112.607C31.3962 112.209 31.0228 112.025 30.6854 112.194C31.013 112.726 30.8801 113.272 30.384 113.518C30.2847 113.58 30.1737 113.62 30.0581 113.637C29.9425 113.654 29.8248 113.646 29.7125 113.615C29.6002 113.584 29.4957 113.53 29.4057 113.456C29.3157 113.382 29.2421 113.291 29.1897 113.187C28.9433 112.69 29.195 112.073 29.89 111.725C30.7486 111.296 31.7393 111.512 32.1338 112.305C32.1735 112.389 32.2042 112.478 32.2255 112.568V112.568Z" fill="white"/>
<path d="M34.6178 105.145C34.3299 104.427 33.7273 104.043 33.1855 104.263C31.7158 104.855 33.871 108.397 31.6177 109.306C30.4823 109.765 29.4584 108.999 28.9481 107.727C28.4168 106.407 28.7614 105.134 29.7219 104.586L30.4386 105.549C29.8173 105.828 29.6018 106.601 29.9 107.344C30.1576 107.987 30.7108 108.389 31.226 108.181C32.6173 107.621 30.4781 104.043 32.7339 103.133C33.8669 102.675 35.0404 103.365 35.628 104.828C36.2401 106.357 35.8401 107.859 34.6787 108.43L33.9158 107.427C34.7003 107.037 34.9723 106.032 34.6178 105.145Z" fill="white"/>
<path d="M26.867 96.8508C27.0955 97.9761 28.2272 98.7263 29.5158 98.4512L33.1621 97.7031L33.3804 98.7877L26.5773 100.188L26.3815 99.2697L27.6042 98.8631C27.1299 98.7683 26.6965 98.531 26.3623 98.183C26.0281 97.8349 25.8091 97.3928 25.7346 96.9159C25.4255 95.3847 26.3854 94.0423 28.0332 93.7062L32.1683 92.8554L32.3892 93.9386L28.3347 94.7728C27.2884 94.9811 26.6602 95.8327 26.867 96.8508Z" fill="white"/>
<path d="M25.0594 91.0212L31.963 90.2816L32.075 91.3844L25.1738 92.1226L25.0594 91.0212ZM22.4649 91.854C22.4431 91.6797 22.4737 91.5027 22.553 91.3455C22.6323 91.1882 22.7565 91.0578 22.91 90.9709C23.0634 90.884 23.2391 90.8445 23.4147 90.8574C23.5903 90.8704 23.7579 90.9351 23.8961 91.0435C24.0343 91.1518 24.1368 91.2988 24.1907 91.4659C24.2446 91.6329 24.2474 91.8124 24.1987 91.9814C24.1501 92.1505 24.0521 92.3015 23.9174 92.4153C23.7826 92.529 23.6172 92.6003 23.4421 92.6202C23.327 92.638 23.2095 92.6319 23.097 92.6023C22.9846 92.5728 22.8795 92.5204 22.7884 92.4485C22.6973 92.3766 22.6221 92.2866 22.5676 92.1843C22.513 92.0819 22.4803 91.9693 22.4713 91.8536L22.4649 91.854Z" fill="white"/>
<path d="M31.9142 85.6952C31.9296 87.5921 30.4857 89.1209 28.3082 89.1474C26.1307 89.174 24.6606 87.7277 24.6434 85.8452C24.6149 85.1221 24.8408 84.4107 25.2819 83.8341C25.723 83.2575 26.3517 82.852 27.059 82.6877L27.4584 83.9006C26.9805 83.9487 26.5373 84.1738 26.2164 84.5315C25.8955 84.8892 25.7204 85.3534 25.7257 85.8323C25.7367 87.0499 26.7972 87.9776 28.2926 87.9624C29.788 87.9471 30.8115 86.987 30.8005 85.7694C30.8082 85.2703 30.6197 84.7888 30.2752 84.4281C29.9308 84.0674 29.4578 83.8563 28.9577 83.8399L29.3356 82.5607C30.8283 82.7665 31.8943 84.0802 31.9142 85.6952Z" fill="white"/>
<path d="M28.329 81.6176C26.2233 81.3632 24.8659 79.8053 25.1079 77.8796C25.3558 75.9004 27.1114 74.8304 29.3136 75.0955C29.392 75.1023 29.4696 75.1166 29.5453 75.138L28.8837 80.4592C30.1277 80.4427 31.0882 79.692 31.2301 78.5656C31.3446 77.6581 30.8674 76.7794 30.0896 76.5034L30.632 75.3122C31.8046 75.7627 32.5244 77.1598 32.3324 78.6975C32.0816 80.6716 30.411 81.8657 28.329 81.6176ZM28.3255 76.1749C27.7993 76.1775 27.2912 76.3707 26.8956 76.7184C26.4999 77.0661 26.2437 77.5447 26.1745 78.0653C26.0456 79.081 26.7053 79.9574 27.8006 80.3029L28.3255 76.1749Z" fill="white"/>
<path d="M26.6659 70.4324L26.789 70.0088C26.8149 69.9053 26.8194 69.7978 26.8022 69.6927C26.7849 69.5876 26.7463 69.4873 26.6887 69.3978C26.6311 69.3083 26.5558 69.2316 26.4672 69.1724C26.3787 69.1132 26.2788 69.0727 26.1739 69.0535L25.2925 68.8006L25.5875 67.7889L27.2935 68.2773L27.7216 66.8128L28.7598 67.1115L28.3342 68.5745L32.1912 69.6737C32.3068 69.7063 32.4279 69.7146 32.547 69.6981C32.6662 69.6815 32.7806 69.6404 32.8832 69.5775C32.9858 69.5145 33.0742 69.431 33.1429 69.3322C33.2115 69.2335 33.2589 69.1217 33.2821 69.004C33.3383 68.8157 33.3663 68.6202 33.365 68.4239L34.4383 68.7023C34.4395 68.9647 34.4023 69.2259 34.3278 69.4779C34.0133 70.5542 33.1208 71.0927 32.0844 70.803L28.0071 69.6348L27.6882 70.7269L26.6659 70.4324Z" fill="white"/>
<path d="M31.2507 66.9041C29.299 66.1118 28.4458 64.1997 29.2068 62.3334C29.9678 60.4672 31.9378 59.699 33.8894 60.4913C35.8411 61.2837 36.6943 63.1957 35.9333 65.062C35.1723 66.9282 33.2023 67.6964 31.2507 66.9041ZM34.9038 64.6453C35.4128 63.4135 34.8066 62.1204 33.458 61.562C32.1093 61.0035 30.7262 61.5028 30.2198 62.7331C29.7133 63.9634 30.3403 65.2578 31.7072 65.819C33.0741 66.3801 34.3989 65.8781 34.9038 64.6453V64.6453Z" fill="white"/>
<path d="M38.3499 48.7174C37.739 49.5757 38.032 50.8068 39.106 51.567L42.1068 53.696L41.4694 54.5895L38.1281 52.2181C37.2473 51.5958 36.2447 51.6425 35.6849 52.4446C35.0643 53.3151 35.3502 54.557 36.4242 55.3172L39.425 57.4462L38.7805 58.3505L33.128 54.3499L33.6446 53.6293L34.7407 54.1672C34.4966 53.7899 34.3759 53.3461 34.3953 52.8965C34.4147 52.447 34.5732 52.0139 34.849 51.6567C35.1379 51.2538 35.543 50.9478 36.0099 50.7799C36.4768 50.612 36.9834 50.59 37.4619 50.7169C36.8659 49.9567 36.9005 48.7893 37.5308 47.9065C38.4188 46.6655 40.0078 46.6328 41.2711 47.5298L44.7723 49.9985L44.1277 50.9028L40.7368 48.5035C39.8671 47.8714 38.912 47.9539 38.3499 48.7174Z" fill="white"/>
<path d="M42.9881 47.0606C41.5003 45.5548 41.4142 43.4892 42.8104 42.121C44.2384 40.7211 46.2789 40.9666 47.8357 42.5456C47.8905 42.6017 47.9423 42.6606 47.991 42.722L44.1509 46.4924C45.1356 47.2543 46.351 47.2577 47.1636 46.4592C47.8195 45.8178 48.0051 44.8192 47.561 44.1311L48.7259 43.5317C49.3524 44.6168 49.0518 46.1574 47.9426 47.2468C46.5055 48.6485 44.4554 48.5483 42.9881 47.0606ZM46.3748 42.7771C45.9621 42.4535 45.4453 42.2905 44.9198 42.3181C44.3944 42.3457 43.8959 42.5621 43.5166 42.9273C42.7838 43.6497 42.754 44.7445 43.4013 45.6978L46.3748 42.7771Z" fill="white"/>
<path d="M48.5032 41.7463C47.2351 40.0537 47.4266 37.9941 48.9763 36.8166C50.5806 35.6177 52.5643 36.1354 53.8913 37.907C53.9355 37.9712 53.9745 38.0387 54.008 38.1091L49.7032 41.3295C50.576 42.2159 51.7803 42.3853 52.6929 41.7021C53.4254 41.1528 53.7452 40.1899 53.3978 39.4492L54.6315 39.0096C55.1158 40.1669 54.601 41.6548 53.3544 42.5874C51.7724 43.7901 49.7557 43.4179 48.5032 41.7463ZM52.4368 37.9585C51.5279 37.1196 50.3882 37.1257 49.5874 37.7244C48.7865 38.3232 48.5861 39.4234 49.098 40.4549L52.4368 37.9585Z" fill="white"/>
<path d="M52.4721 34.5782L52.8582 34.3553C52.9472 34.297 53.0235 34.2212 53.0824 34.1326C53.1412 34.0441 53.1815 33.9446 53.2006 33.8402C53.2198 33.7358 53.2174 33.6286 53.1938 33.5253C53.1701 33.422 53.1256 33.3247 53.0629 33.2393L52.5927 32.4597L53.4977 31.914L54.4111 33.4322L55.7179 32.6444L56.2755 33.5697L54.9648 34.3564L57.0297 37.7941C57.0918 37.8958 57.1745 37.9836 57.2724 38.0517C57.3704 38.1199 57.4815 38.1671 57.5988 38.1903C57.7162 38.2135 57.8371 38.2122 57.9541 38.1865C58.0711 38.1607 58.1816 38.1112 58.2786 38.0409C58.448 37.9411 58.6015 37.8167 58.734 37.6716L59.3296 38.6048C59.1499 38.797 58.9447 38.9636 58.7197 39.1C57.7545 39.6805 56.7355 39.4673 56.1908 38.5644L54.0125 34.9361L53.0373 35.5224L52.4721 34.5782Z" fill="white"/>
<path d="M60.614 30.1336L64.5074 34.2717L64.2377 28.6401L65.4193 28.1508L65.6023 36.6429C65.6194 37.8304 65.1916 38.7859 64.3582 39.2471L63.6355 38.2907C63.9032 38.1639 64.1269 37.9601 64.278 37.7058C64.429 37.4514 64.5004 37.158 64.4829 36.8635L64.465 35.7962L59.4037 30.6427L60.614 30.1336Z" fill="white"/>
<path d="M67.2144 31.1694C66.6776 29.1512 67.685 27.289 69.6301 26.7614C71.5751 26.2338 73.3743 27.3237 73.9183 29.3544C74.4623 31.3852 73.4517 33.2359 71.5066 33.7635C69.5616 34.2911 67.7599 33.2027 67.2144 31.1694ZM71.2205 32.6948C72.5061 32.345 73.1735 31.075 72.8073 29.6533C72.4411 28.2317 71.2028 27.4532 69.9207 27.7976C68.6387 28.142 67.9711 29.4288 68.3469 30.8615C68.7228 32.2942 69.931 33.0435 71.218 32.6962L71.2205 32.6948Z" fill="white"/>
<path d="M80.6788 31.9316L80.3885 30.7688C80.1982 31.5971 79.3695 32.2518 78.3151 32.3883C76.786 32.5826 75.5226 31.5292 75.3216 29.8958L74.8046 25.6942L75.9067 25.5535L76.411 29.646C76.5389 30.6897 77.3079 31.3733 78.3368 31.2448C78.6137 31.2092 78.8806 31.1179 79.1214 30.9764C79.3622 30.8348 79.5719 30.6461 79.7377 30.4216C79.9036 30.1971 80.022 29.9415 80.086 29.6703C80.1499 29.3992 80.158 29.1181 80.1097 28.8443L79.6493 25.0823L80.7514 24.9416L81.4263 30.4357L81.6224 31.8059L80.6788 31.9316Z" fill="white"/>
<path d="M90.0385 25.3921C99.6232 26.1128 108.882 29.1326 117.026 34.1947C125.171 39.2567 131.961 46.2112 136.819 54.4668C139.261 58.5648 141.191 62.9466 142.568 67.5153C143.262 69.7965 143.821 72.1173 144.24 74.4655C144.344 75.0507 144.419 75.643 144.509 76.233C144.599 76.823 144.703 77.4082 144.746 78.005C144.854 79.1933 145.006 80.3764 145.036 81.5695C145.54 91.1394 143.739 100.7 139.785 109.453C135.836 118.214 129.83 125.903 122.277 131.868L120.845 132.954C120.611 133.129 120.382 133.311 120.127 133.495L119.386 133.999L117.904 135.011C117.409 135.347 116.887 135.641 116.38 135.961C114.344 137.222 112.231 138.354 110.054 139.351L108.417 140.083C107.865 140.319 107.304 140.529 106.749 140.753L105.917 141.084L105.081 141.374C104.522 141.563 103.954 141.778 103.383 141.958C101.101 142.686 98.7817 143.285 96.4343 143.755C86.989 145.585 77.2514 145.131 68.0378 142.432C58.8242 139.733 50.4032 134.867 43.4809 128.242L42.4995 129.258C49.5831 136.037 58.2003 141.016 67.6286 143.778C77.0568 146.539 87.0213 147.003 96.6863 145.129C99.0897 144.648 101.465 144.034 103.801 143.29C104.386 143.105 104.96 142.89 105.538 142.693L106.406 142.388L107.259 142.049C107.829 141.819 108.403 141.604 108.966 141.363L110.643 140.614C112.87 139.593 115.032 138.433 117.116 137.143C117.635 136.82 118.168 136.515 118.675 136.173L120.193 135.137L120.95 134.619C121.187 134.45 121.44 134.251 121.685 134.069L123.15 132.957C134.806 123.738 142.737 110.633 145.474 96.0676C146.392 91.2616 146.72 86.3644 146.451 81.4844C146.415 80.2644 146.267 79.0527 146.156 77.8361C146.109 77.228 145.996 76.6252 145.914 76.0205C145.832 75.4158 145.744 74.8115 145.638 74.2108C145.208 71.8075 144.636 69.4324 143.924 67.0978C142.516 62.4224 140.541 57.938 138.043 53.7436C133.059 45.3038 126.106 38.1935 117.772 33.0137C109.438 27.8339 99.9677 24.7368 90.1615 23.984L90.0385 25.3921Z" fill="#173E3C"/>
<path d="M89.9213 26.7946C99.2815 27.496 108.323 30.4439 116.277 35.3873C124.231 40.3308 130.861 47.1234 135.603 55.1869C137.984 59.1842 139.867 63.4583 141.21 67.9147C141.887 70.1414 142.432 72.4064 142.843 74.6981C142.943 75.272 143.017 75.8513 143.105 76.426C143.193 77.0006 143.293 77.5744 143.335 78.1558C143.442 79.3145 143.588 80.4707 143.625 81.6467C144.12 90.9949 142.362 100.335 138.5 108.886C134.643 117.437 128.777 124.942 121.4 130.762L120.005 131.82C119.773 131.997 119.543 132.177 119.306 132.347L118.587 132.838L117.149 133.822C116.67 134.149 116.165 134.433 115.659 134.749C113.671 135.98 111.608 137.087 109.482 138.062L107.887 138.773C107.35 139 106.801 139.208 106.259 139.427L105.444 139.752L104.61 140.044C104.052 140.236 103.503 140.443 102.953 140.614C100.725 141.324 98.4603 141.91 96.1683 142.37C86.9472 144.156 77.4406 143.712 68.4461 141.076C59.4516 138.439 51.2316 133.686 44.4756 127.217L43.4792 128.241C50.3996 134.865 58.818 139.73 68.029 142.43C77.24 145.13 86.9751 145.586 96.4186 143.758C98.766 143.289 101.086 142.689 103.367 141.962C103.933 141.785 104.499 141.571 105.065 141.377L105.901 141.088L106.733 140.757C107.276 140.54 107.849 140.322 108.402 140.086L110.038 139.354C112.215 138.358 114.328 137.225 116.364 135.965C116.872 135.645 117.394 135.35 117.888 135.015L119.37 134.003L120.112 133.498C120.347 133.326 120.591 133.135 120.829 132.958L122.261 131.872C133.651 122.866 141.4 110.061 144.073 95.8302C144.968 91.1348 145.288 86.3506 145.026 81.583C145.003 80.3855 144.844 79.2068 144.736 78.0185C144.693 77.4217 144.578 76.8358 144.499 76.2465C144.419 75.6571 144.334 75.0642 144.231 74.479C143.811 72.1308 143.252 69.81 142.558 67.5288C141.181 62.9601 139.251 58.5783 136.809 54.4803C131.942 46.2326 125.15 39.2843 117.007 34.2235C108.864 29.1626 99.6101 26.138 90.0286 25.4056L89.9213 26.7946Z" fill="#F6B1C2"/>
<path d="M89.8067 28.1965C98.9372 28.9111 107.755 31.794 115.523 36.6047C123.294 41.4105 129.769 48.0348 134.389 55.9063C136.718 59.8107 138.558 63.9872 139.867 68.3424C140.53 70.5148 141.062 72.725 141.462 74.9615C141.561 75.5199 141.633 76.084 141.72 76.6457C141.807 77.2075 141.903 77.7674 141.944 78.3319C142.046 79.4638 142.191 80.5943 142.232 81.7248C142.708 90.8456 140.991 99.9573 137.225 108.3C133.459 116.644 127.735 123.966 120.537 129.646L119.176 130.681C118.942 130.856 118.712 131.036 118.491 131.197L117.77 131.686L116.358 132.651C115.877 132.975 115.388 133.251 114.905 133.556C112.963 134.756 110.948 135.836 108.873 136.789L107.31 137.486C106.775 137.718 106.251 137.91 105.724 138.125L104.93 138.441L104.121 138.725C103.581 138.907 103.048 139.108 102.503 139.28C100.329 139.972 98.1193 140.544 95.8835 140.993C86.8859 142.736 77.6098 142.303 68.8332 139.731C60.0565 137.16 52.0351 132.523 45.4417 126.212L44.4603 127.227C51.2163 133.697 59.4364 138.45 68.4309 141.086C77.4254 143.723 86.9319 144.167 96.1531 142.38C98.4451 141.921 100.71 141.335 102.938 140.625C103.503 140.445 104.052 140.238 104.594 140.054L105.429 139.762L106.244 139.438C106.786 139.218 107.335 139.011 107.872 138.784L109.467 138.073C111.593 137.098 113.656 135.991 115.644 134.759C116.135 134.452 116.647 134.18 117.134 133.832L118.572 132.849L119.291 132.358C119.527 132.188 119.758 132.008 119.99 131.831L121.385 130.773C132.505 121.978 140.072 109.475 142.683 95.5799C143.56 90.995 143.873 86.323 143.616 81.6674C143.585 80.5014 143.439 79.3452 143.325 78.1765C143.284 77.5951 143.174 77.0231 143.095 76.4467C143.017 75.8702 142.934 75.2927 142.833 74.7188C142.423 72.4271 141.877 70.1621 141.2 67.9355C139.858 63.4791 137.975 59.2049 135.593 55.2076C130.84 47.154 124.207 40.3691 116.256 35.4271C108.304 30.485 99.2681 27.5312 89.9118 26.8153L89.8067 28.1965Z" fill="#F4F2EA"/>
<path d="M89.6929 29.6004C98.6017 30.2694 107.207 33.0761 114.777 37.7816C122.347 42.4872 128.658 48.9523 133.172 56.6268C135.439 60.4385 137.231 64.514 138.507 68.763C139.153 70.8808 139.672 73.0353 140.063 75.2152C140.158 75.7623 140.228 76.3109 140.312 76.8573C140.397 77.4037 140.494 77.9533 140.532 78.5064C140.631 79.61 140.768 80.6984 140.8 81.8178C141.267 90.7144 139.593 99.6026 135.916 107.74C132.247 115.877 126.665 123.019 119.646 128.558L118.316 129.566C118.083 129.74 117.875 129.907 117.649 130.067L116.959 130.539L115.581 131.481C115.12 131.794 114.633 132.068 114.162 132.363C112.271 133.533 110.311 134.584 108.29 135.51L106.767 136.19C106.255 136.409 105.733 136.604 105.219 136.815L104.444 137.122L103.657 137.397C103.13 137.579 102.607 137.774 102.08 137.942C99.9587 138.615 97.8031 139.172 95.6223 139.611C86.8455 141.31 77.7976 140.886 69.2368 138.377C60.6761 135.868 52.8521 131.345 46.4205 125.189L45.4416 126.203C52.035 132.515 60.0564 137.151 68.8331 139.723C77.6097 142.295 86.8858 142.727 95.8834 140.984C98.1192 140.535 100.329 139.963 102.503 139.271C103.048 139.099 103.581 138.898 104.121 138.716L104.93 138.432L105.724 138.117C106.251 137.902 106.788 137.702 107.31 137.477L108.873 136.78C110.948 135.827 112.962 134.747 114.905 133.547C115.395 133.238 115.884 132.962 116.358 132.642L117.77 131.677L118.49 131.188C118.727 131.018 118.957 130.839 119.176 130.673L120.537 129.637C131.391 121.057 138.775 108.855 141.32 95.294C142.175 90.8194 142.481 86.2598 142.232 81.7161C142.201 80.5798 142.056 79.4493 141.944 78.3232C141.902 77.7586 141.794 77.1995 141.719 76.637C141.645 76.0744 141.561 75.5112 141.462 74.9527C141.062 72.7163 140.53 70.506 139.867 68.3336C138.558 63.9785 136.718 59.802 134.389 55.8976C129.75 48.0374 123.277 41.4154 115.517 36.5921C107.757 31.7688 98.9379 28.8861 89.8066 28.1877L89.6929 29.6004Z" fill="#12D626"/>
</g>
<defs>
<clipPath id="clip0_283:363">
<rect width="123" height="124" fill="white" transform="translate(61.5547 169.261) rotate(-120)"/>
</clipPath>
</defs>
</svg>
