<svg width="90" height="54" viewBox="0 0 90 54" fill="none" xmlns="http://www.w3.org/2000/svg">
<path d="M18.0371 6.90957C16.192 0.420257 0.727378 5.29701 13.4423 26.2281C14.8341 28.5191 18.856 32.8396 17.2446 39.9349C15.6333 47.0301 4.38668 46.1321 5.02625 38.2571C6.44034 20.8453 33.9074 22.8973 33.9074 5.2967C33.9074 -7.24993 27.1908 21.1268 27.1908 26.1958C27.1908 33.4343 30.6439 31.4685 33.2049 29.0662C34.7378 27.6283 37.1399 25.7205 38.2676 24.0995C39.7962 21.9022 37.3462 20.181 36.1204 22.7126C34.8153 25.408 34.3809 31.0879 35.3327 32.0978C38.1223 35.0577 42.0844 26.7832 42.3706 26.2281C46.5547 18.1115 49.8753 12.3887 51.4683 8.55385C55.4871 -1.12084 51.9286 1.22109 48.6556 7.45784C42.8999 18.4254 49.3377 30.523 44.8911 41.5797C42.1269 48.453 34.8864 56.171 37.6401 46.7873C39.4074 40.7651 56.933 17.8329 60.769 8.55439C64.6049 -0.724154 60.769 0.371893 56.9995 8.55385C53.23 16.7358 60.4368 38.7618 48.7026 51.6074C46.8652 53.6189 45.8592 47.6624 50.7769 39.2133C55.6945 30.7642 61.7306 27.6832 63.6539 24.3671C65.5772 21.051 63.8048 19.5717 61.7306 21.9984C59.8453 24.2042 59.8073 30.7585 60.769 32.4205C61.7306 34.0825 65.4841 37.6667 68.8651 27.3743C72.2462 17.0818 67.8803 35.7921 71.4974 31.4702C71.8393 31.0617 74.4377 19.7393 74.921 22.3108C75.2408 24.0123 75.2156 25.7138 75.2156 27.4388C75.2156 29.7601 75.1697 34.4607 78.8164 34.0825C84.4563 33.4976 86.3775 28.2972 87 23.6976" stroke-width="1.5" stroke-linecap="round" stroke-linejoin="round"/>
<path d="M16 19C26.0901 14.2292 50.3288 9.63944 67 13.3598" stroke-width="1.5" stroke-linecap="round" stroke-linejoin="round"/>
</svg>
